<svg width="119" height="31" viewBox="0 0 119 31" fill="none" xmlns="http://www.w3.org/2000/svg">
<path d="M17.5794 15.107C17.5794 11.782 20.3107 10.2383 20.4294 10.1195C18.8857 7.8633 16.5107 7.6258 15.6794 7.50705C13.6607 7.26955 11.7607 8.69455 10.6919 8.69455C9.62319 8.69455 8.07944 7.50705 6.41694 7.50705C4.27944 7.50705 2.26069 8.8133 1.07319 10.7133C-1.18306 14.632 0.479445 20.5695 2.7357 23.7758C3.80445 25.3195 5.11069 27.1008 6.77319 27.1008C8.43569 26.982 9.02944 26.032 11.0482 26.032C13.0669 26.032 13.5419 27.1008 15.3232 27.1008C17.1044 27.1008 18.1732 25.557 19.2419 23.8945C20.5482 22.1133 21.0232 20.332 21.0232 20.2133C21.0232 20.332 17.5794 19.0258 17.5794 15.107Z" fill="white"/>
<path d="M14.2526 5.48828C15.0838 4.41953 15.7963 2.87578 15.5588 1.33203C14.2526 1.33203 12.7088 2.16328 11.7588 3.35078C10.9276 4.30078 10.2151 5.84453 10.4526 7.38828C11.8776 7.38828 13.4213 6.55703 14.2526 5.48828Z" fill="white"/>
<path d="M38.3602 23.1836H32.7789L31.4727 27.2211H29.0977L34.4414 12.4961H36.8164L42.1602 27.2211H39.7852L38.3602 23.1836ZM33.3727 21.4023H37.8852L35.6289 14.8711H35.5102L33.3727 21.4023Z" fill="white"/>
<path d="M53.6797 21.8771C53.6797 25.2021 51.8984 27.3396 49.1672 27.3396C47.6234 27.3396 46.4359 26.6271 45.8422 25.4396V30.7834H43.5859V16.5334H45.7234V18.3146C46.3172 17.1271 47.6234 16.4146 49.1672 16.4146C51.7797 16.2959 53.6797 18.5521 53.6797 21.8771ZM51.3047 21.8771C51.3047 19.7396 50.2359 18.3146 48.4547 18.3146C46.7922 18.3146 45.6047 19.7396 45.6047 21.8771C45.6047 24.0146 46.7922 25.4396 48.4547 25.4396C50.2359 25.4396 51.3047 24.0146 51.3047 21.8771Z" fill="white"/>
<path d="M65.4336 21.8771C65.4336 25.2021 63.6523 27.3396 60.9211 27.3396C59.3773 27.3396 58.1898 26.6271 57.5961 25.4396V30.7834H55.3398V16.5334H57.4773V18.3146C58.0711 17.1271 59.3773 16.4146 60.9211 16.4146C63.6523 16.2959 65.4336 18.5521 65.4336 21.8771ZM63.1773 21.8771C63.1773 19.7396 62.1086 18.3146 60.3273 18.3146C58.6648 18.3146 57.4773 19.7396 57.4773 21.8771C57.4773 24.0146 58.6648 25.4396 60.3273 25.4396C62.1086 25.4396 63.1773 24.0146 63.1773 21.8771Z" fill="white"/>
<path d="M73.2727 23.0641C73.3914 24.4891 74.8164 25.4391 76.8352 25.4391C78.7352 25.4391 80.0414 24.4891 80.0414 23.1828C80.0414 21.9953 79.2102 21.4016 77.3102 20.9266L75.4102 20.4516C72.6789 19.7391 71.4914 18.5516 71.4914 16.5328C71.4914 14.0391 73.7477 12.2578 76.8352 12.2578C79.9227 12.2578 82.0602 14.0391 82.1789 16.5328H79.9227C79.8039 15.1078 78.6164 14.1578 76.8352 14.1578C75.0539 14.1578 73.8664 15.1078 73.8664 16.4141C73.8664 17.4828 74.6977 18.0766 76.5977 18.5516L78.2602 18.9078C81.2289 19.6203 82.5352 20.8078 82.5352 22.9453C82.5352 25.6766 80.2789 27.4578 76.8352 27.4578C73.5102 27.4578 71.3727 25.7953 71.2539 23.0641H73.2727Z" fill="white"/>
<path d="M87.0484 13.9219V16.4156H89.0672V18.1969H87.0484V24.1344C87.0484 25.0844 87.4047 25.4406 88.3547 25.4406C88.5922 25.4406 88.9484 25.4406 89.0672 25.4406V27.2219C88.8297 27.3406 88.3547 27.3406 87.8797 27.3406C85.7422 27.3406 84.9109 26.5094 84.9109 24.4906V18.3156H83.3672V16.5344H84.9109V14.0406H87.0484V13.9219Z" fill="white"/>
<path d="M90.3711 21.8766C90.3711 18.5516 92.3898 16.4141 95.4773 16.4141C98.5648 16.4141 100.584 18.5516 100.584 21.8766C100.584 25.3203 98.5648 27.3391 95.4773 27.3391C92.2711 27.3391 90.3711 25.2016 90.3711 21.8766ZM98.3273 21.8766C98.3273 19.5016 97.2586 18.1953 95.4773 18.1953C93.6961 18.1953 92.6273 19.5016 92.6273 21.8766C92.6273 24.2516 93.6961 25.5578 95.4773 25.5578C97.2586 25.5578 98.3273 24.1328 98.3273 21.8766Z" fill="white"/>
<path d="M102.367 16.4141H104.505V18.3141C104.861 17.1266 105.811 16.4141 107.117 16.4141C107.473 16.4141 107.711 16.4141 107.83 16.5328V18.5516C107.711 18.4328 107.236 18.4328 106.88 18.4328C105.455 18.4328 104.623 19.3828 104.623 20.9266V27.3391H102.367V16.4141Z" fill="white"/>
<path d="M118.042 24.0156C117.686 25.9156 115.786 27.3406 113.411 27.3406C110.323 27.3406 108.305 25.2031 108.305 21.8781C108.305 18.5531 110.205 16.2969 113.292 16.2969C116.261 16.2969 118.161 18.3156 118.161 21.6406V22.3531H110.561V22.4719C110.561 24.2531 111.748 25.5594 113.411 25.5594C114.598 25.5594 115.548 24.9656 115.905 24.0156H118.042ZM110.561 20.8094H115.905C115.905 19.1469 114.836 18.0781 113.292 18.0781C111.748 18.0781 110.68 19.2656 110.561 20.8094Z" fill="white"/>
<path d="M33.0148 1.33203C35.1523 1.33203 36.3398 2.63828 36.3398 4.89453C36.3398 7.15078 35.1523 8.45703 33.0148 8.45703H30.4023V1.33203H33.0148ZM31.5898 7.50703H32.8961C34.3211 7.50703 35.2711 6.55703 35.2711 5.01328C35.2711 3.46953 34.4398 2.51953 32.8961 2.51953H31.5898V7.50703Z" fill="white"/>
<path d="M37.6445 5.72734C37.6445 3.94609 38.5945 2.99609 40.1383 2.99609C41.682 2.99609 42.632 4.06484 42.632 5.72734C42.632 7.50859 41.682 8.45859 40.1383 8.45859C38.5945 8.57734 37.6445 7.50859 37.6445 5.72734ZM41.5633 5.72734C41.5633 4.53984 41.0883 3.94609 40.1383 3.94609C39.1883 3.94609 38.7133 4.65859 38.7133 5.72734C38.7133 6.91484 39.1883 7.62734 40.1383 7.62734C41.0883 7.62734 41.5633 6.91484 41.5633 5.72734Z" fill="white"/>
<path d="M49.4008 8.45703H48.332L47.2633 4.53828H47.1445L46.0758 8.45703H45.007L43.582 3.11328H44.6508L45.6008 7.15078H45.7195L46.7883 3.11328H47.857L48.9258 7.15078H49.0445L49.9945 3.11328H51.0633L49.4008 8.45703Z" fill="white"/>
<path d="M52.1328 3.11484H53.2016V3.94609H53.3203C53.5578 3.35234 54.1516 2.99609 54.8641 2.99609C56.0516 2.99609 56.7641 3.70859 56.7641 5.01484V8.45859H55.6953V5.25234C55.6953 4.42109 55.3391 3.94609 54.5078 3.94609C53.6766 3.94609 53.2016 4.42109 53.2016 5.25234V8.33984H52.1328V3.11484Z" fill="white"/>
<path d="M58.3086 0.976562H59.3773V8.45781H58.3086V0.976562Z" fill="white"/>
<path d="M60.8008 5.72734C60.8008 3.94609 61.7508 2.99609 63.2945 2.99609C64.8383 2.99609 65.7883 4.06484 65.7883 5.72734C65.7883 7.50859 64.8383 8.45859 63.2945 8.45859C61.7508 8.57734 60.8008 7.50859 60.8008 5.72734ZM64.8383 5.72734C64.8383 4.53984 64.3633 3.94609 63.4133 3.94609C62.4633 3.94609 61.9883 4.65859 61.9883 5.72734C61.9883 6.91484 62.4633 7.62734 63.4133 7.62734C64.2445 7.62734 64.8383 6.91484 64.8383 5.72734Z" fill="white"/>
<path d="M66.9766 6.91484C66.9766 5.96484 67.6891 5.37109 68.9953 5.37109L70.4203 5.25234V4.77734C70.4203 4.18359 70.0641 3.94609 69.3516 3.94609C68.7578 3.94609 68.4016 4.18359 68.2828 4.53984H67.2141C67.3328 3.58984 68.1641 2.99609 69.3516 2.99609C70.6578 2.99609 71.4891 3.70859 71.4891 4.77734V8.45859H70.4203V7.74609H70.3016C69.9453 8.33984 69.3516 8.57734 68.6391 8.57734C67.6891 8.57734 66.9766 7.86484 66.9766 6.91484ZM70.4203 6.43984V5.96484L69.1141 6.08359C68.4016 6.08359 68.0453 6.43984 68.0453 6.79609C68.0453 7.27109 68.5203 7.50859 68.9953 7.50859C69.8266 7.62734 70.4203 7.15234 70.4203 6.43984Z" fill="white"/>
<path d="M72.7969 5.72656C72.7969 4.06406 73.6281 2.99531 75.0531 2.99531C75.7656 2.99531 76.3594 3.35156 76.7156 3.94531H76.8344V0.976562H77.9031V8.45781H76.8344V7.62656H76.7156C76.3594 8.22031 75.7656 8.57656 75.0531 8.57656C73.7469 8.57656 72.7969 7.50781 72.7969 5.72656ZM73.9844 5.72656C73.9844 6.91406 74.5781 7.50781 75.4094 7.50781C76.2406 7.50781 76.8344 6.79531 76.8344 5.72656C76.8344 4.65781 76.2406 3.94531 75.4094 3.94531C74.4594 3.94531 73.9844 4.65781 73.9844 5.72656Z" fill="white"/>
<path d="M82.1758 5.72734C82.1758 3.94609 83.1258 2.99609 84.6695 2.99609C86.2133 2.99609 87.1633 4.06484 87.1633 5.72734C87.1633 7.50859 86.2133 8.45859 84.6695 8.45859C83.1258 8.57734 82.1758 7.50859 82.1758 5.72734ZM86.2133 5.72734C86.2133 4.53984 85.7383 3.94609 84.7883 3.94609C83.8383 3.94609 83.3633 4.65859 83.3633 5.72734C83.3633 6.91484 83.8383 7.62734 84.7883 7.62734C85.6195 7.62734 86.2133 6.91484 86.2133 5.72734Z" fill="white"/>
<path d="M88.707 3.11484H89.7758V3.94609H89.8945C90.132 3.35234 90.7258 2.99609 91.4383 2.99609C92.6258 2.99609 93.3383 3.70859 93.3383 5.01484V8.45859H92.2695V5.25234C92.2695 4.42109 91.9133 3.94609 91.082 3.94609C90.2508 3.94609 89.7758 4.42109 89.7758 5.25234V8.33984H88.707V3.11484Z" fill="white"/>
<path d="M99.1594 1.80859V3.11484H100.347V4.06484H99.1594V6.79609C99.1594 7.38984 99.3969 7.62734 99.8719 7.62734C99.9906 7.62734 100.109 7.62734 100.228 7.62734V8.45859C100.109 8.45859 99.8719 8.45859 99.6344 8.45859C98.4469 8.45859 97.9719 8.10234 97.9719 7.03359V4.06484H97.1406V3.23359H97.9719V1.80859H99.1594Z" fill="white"/>
<path d="M101.77 0.976562H102.838V3.94531H102.957C103.195 3.35156 103.788 2.99531 104.62 2.99531C105.807 2.99531 106.52 3.70781 106.52 5.01406V8.45781H105.451V5.25156C105.451 4.42031 105.095 3.94531 104.263 3.94531C103.432 3.94531 102.957 4.53906 102.957 5.25156V8.33906H101.888V0.976562H101.77Z" fill="white"/>
<path d="M112.576 7.03359C112.338 7.98359 111.507 8.57734 110.201 8.57734C108.657 8.57734 107.707 7.50859 107.707 5.84609C107.707 4.18359 108.657 2.99609 110.201 2.99609C111.745 2.99609 112.576 4.06484 112.576 5.72734V6.08359H108.776C108.776 7.03359 109.37 7.62734 110.201 7.62734C110.795 7.62734 111.27 7.38984 111.507 7.03359H112.576ZM108.776 5.25234H111.507C111.507 4.42109 110.913 3.82734 110.201 3.82734C109.37 3.94609 108.895 4.42109 108.776 5.25234Z" fill="white"/>
</svg>
