<svg width="138" height="33" viewBox="0 0 138 33" fill="none" xmlns="http://www.w3.org/2000/svg">
<path d="M45.1775 4.24125C45.1775 5.20125 44.9405 6.04125 44.3479 6.64125C43.6368 7.36125 42.8071 7.72125 41.7405 7.72125C40.6738 7.72125 39.8442 7.36125 39.1331 6.64125C38.422 5.92125 38.0664 5.08125 38.0664 4.00125C38.0664 2.92125 38.422 2.08125 39.1331 1.36125C39.8442 0.64125 40.6738 0.28125 41.7405 0.28125C42.2146 0.28125 42.6886 0.40125 43.1627 0.64125C43.6368 0.88125 43.9923 1.12125 44.2294 1.48125L43.6368 2.08125C43.1627 1.48125 42.5701 1.24125 41.7405 1.24125C41.0294 1.24125 40.3183 1.48125 39.8442 2.08125C39.2516 2.56125 39.0146 3.28125 39.0146 4.12125C39.0146 4.96125 39.2516 5.68125 39.8442 6.16125C40.4368 6.64125 41.0294 7.00125 41.7405 7.00125C42.5701 7.00125 43.1627 6.76125 43.7553 6.16125C44.1108 5.80125 44.3479 5.32125 44.3479 4.72125H41.7405V3.76125H45.1775C45.1775 3.88125 45.1775 4.12125 45.1775 4.24125Z" fill="white" stroke="white" stroke-width="0.2" stroke-miterlimit="10"/>
<path d="M50.6286 1.24234H47.4286V3.52234H50.3916V4.36234H47.4286V6.64234H50.6286V7.60234H46.4805V0.402344H50.6286V1.24234Z" fill="white" stroke="white" stroke-width="0.2" stroke-miterlimit="10"/>
<path d="M54.5411 7.60234H53.5929V1.24234H51.5781V0.402344H56.5559V1.24234H54.5411V7.60234Z" fill="white" stroke="white" stroke-width="0.2" stroke-miterlimit="10"/>
<path d="M59.9922 7.60234V0.402344H60.9403V7.60234H59.9922Z" fill="white" stroke="white" stroke-width="0.2" stroke-miterlimit="10"/>
<path d="M64.9708 7.60234H64.0226V1.24234H62.0078V0.402344H66.8671V1.24234H64.8523V7.60234H64.9708Z" fill="white" stroke="white" stroke-width="0.2" stroke-miterlimit="10"/>
<path d="M76.2307 6.64125C75.5196 7.36125 74.6899 7.72125 73.6233 7.72125C72.5566 7.72125 71.727 7.36125 71.0159 6.64125C70.3048 5.92125 69.9492 5.08125 69.9492 4.00125C69.9492 2.92125 70.3048 2.08125 71.0159 1.36125C71.727 0.64125 72.5566 0.28125 73.6233 0.28125C74.6899 0.28125 75.5196 0.64125 76.2307 1.36125C76.9418 2.08125 77.2973 2.92125 77.2973 4.00125C77.2973 5.08125 76.9418 5.92125 76.2307 6.64125ZM71.727 6.04125C72.2011 6.52125 72.9122 6.88125 73.6233 6.88125C74.3344 6.88125 75.0455 6.64125 75.5196 6.04125C75.9936 5.56125 76.3492 4.84125 76.3492 4.00125C76.3492 3.16125 76.1122 2.44125 75.5196 1.96125C75.0455 1.48125 74.3344 1.12125 73.6233 1.12125C72.9122 1.12125 72.2011 1.36125 71.727 1.96125C71.2529 2.44125 70.8974 3.16125 70.8974 4.00125C70.8974 4.84125 71.1344 5.56125 71.727 6.04125Z" fill="white" stroke="white" stroke-width="0.2" stroke-miterlimit="10"/>
<path d="M78.6016 7.60234V0.402344H79.6682L83.1053 6.04234V4.60234V0.402344H84.0534V7.60234H83.1053L79.4312 1.72234V3.16234V7.60234H78.6016Z" fill="white" stroke="white" stroke-width="0.2" stroke-miterlimit="10"/>
<path d="M69.7109 18.1595C66.8665 18.1595 64.6146 20.3195 64.6146 23.3195C64.6146 26.1995 66.8665 28.4795 69.7109 28.4795C72.5554 28.4795 74.8072 26.3195 74.8072 23.3195C74.8072 20.1995 72.5554 18.1595 69.7109 18.1595ZM69.7109 26.3195C68.1702 26.3195 66.8665 24.9995 66.8665 23.1995C66.8665 21.3995 68.1702 20.0795 69.7109 20.0795C71.2517 20.0795 72.5554 21.2795 72.5554 23.1995C72.5554 24.9995 71.2517 26.3195 69.7109 26.3195ZM58.6887 18.1595C55.8443 18.1595 53.5924 20.3195 53.5924 23.3195C53.5924 26.1995 55.8443 28.4795 58.6887 28.4795C61.5332 28.4795 63.785 26.3195 63.785 23.3195C63.785 20.1995 61.5332 18.1595 58.6887 18.1595ZM58.6887 26.3195C57.148 26.3195 55.8443 24.9995 55.8443 23.1995C55.8443 21.3995 57.148 20.0795 58.6887 20.0795C60.2295 20.0795 61.5332 21.2795 61.5332 23.1995C61.5332 24.9995 60.2295 26.3195 58.6887 26.3195ZM45.5332 19.7195V21.8795H50.6295C50.5109 23.0795 50.0369 24.0395 49.4443 24.6395C48.7332 25.3595 47.548 26.1995 45.5332 26.1995C42.3332 26.1995 39.9628 23.6795 39.9628 20.4395C39.9628 17.1995 42.4517 14.6795 45.5332 14.6795C47.1924 14.6795 48.4961 15.3995 49.4443 16.2395L50.985 14.6795C49.6813 13.4795 48.022 12.5195 45.6517 12.5195C41.385 12.5195 37.7109 16.1195 37.7109 20.4395C37.7109 24.7595 41.385 28.3595 45.6517 28.3595C48.022 28.3595 49.6813 27.6395 51.1035 26.0795C52.5258 24.6395 52.9998 22.5995 52.9998 21.0395C52.9998 20.5595 52.9998 20.0795 52.8813 19.7195H45.5332ZM99.3406 21.3995C98.8665 20.1995 97.6813 18.1595 95.0739 18.1595C92.4665 18.1595 90.3332 20.1995 90.3332 23.3195C90.3332 26.1995 92.4665 28.4795 95.3109 28.4795C97.5628 28.4795 98.985 27.0395 99.4591 26.1995L97.7998 24.9995C97.2072 25.8395 96.4961 26.4395 95.3109 26.4395C94.1258 26.4395 93.4146 25.9595 92.822 24.8795L99.5776 21.9995L99.3406 21.3995ZM92.4665 23.0795C92.4665 21.1595 94.0072 20.0795 95.0739 20.0795C95.9035 20.0795 96.7332 20.5595 96.9702 21.1595L92.4665 23.0795ZM86.8961 27.9995H89.148V12.9995H86.8961V27.9995ZM83.3406 19.2395C82.748 18.6395 81.7998 18.0395 80.6146 18.0395C78.1258 18.0395 75.7554 20.3195 75.7554 23.1995C75.7554 26.0795 78.0072 28.2395 80.6146 28.2395C81.7998 28.2395 82.748 27.6395 83.222 27.0395H83.3406V27.7595C83.3406 29.6795 82.2739 30.7595 80.6146 30.7595C79.3109 30.7595 78.3628 29.7995 78.1258 28.9595L76.2295 29.7995C76.822 31.1195 78.2443 32.7995 80.7332 32.7995C83.3406 32.7995 85.4739 31.2395 85.4739 27.5195V18.3995H83.3406V19.2395ZM80.7332 26.3195C79.1924 26.3195 77.8887 24.9995 77.8887 23.1995C77.8887 21.3995 79.1924 20.0795 80.7332 20.0795C82.2739 20.0795 83.4591 21.3995 83.4591 23.1995C83.4591 24.9995 82.2739 26.3195 80.7332 26.3195ZM109.652 12.9995H104.318V27.9995H106.57V22.3595H109.652C112.141 22.3595 114.511 20.5595 114.511 17.6795C114.511 14.7995 112.141 12.9995 109.652 12.9995ZM109.77 20.1995H106.57V15.0395H109.77C111.429 15.0395 112.378 16.4795 112.378 17.5595C112.259 18.8795 111.311 20.1995 109.77 20.1995ZM123.4 18.0395C121.741 18.0395 120.081 18.7595 119.489 20.3195L121.504 21.1595C121.978 20.3195 122.689 20.0795 123.518 20.0795C124.704 20.0795 125.77 20.7995 125.889 21.9995V22.1195C125.533 21.8795 124.585 21.5195 123.637 21.5195C121.504 21.5195 119.37 22.7195 119.37 24.8795C119.37 26.9195 121.148 28.2395 123.044 28.2395C124.585 28.2395 125.296 27.5195 125.889 26.7995H126.007V27.9995H128.141V22.2395C127.904 19.5995 125.889 18.0395 123.4 18.0395ZM123.163 26.3195C122.452 26.3195 121.385 25.9595 121.385 24.9995C121.385 23.7995 122.689 23.4395 123.755 23.4395C124.704 23.4395 125.178 23.6795 125.77 23.9195C125.533 25.3595 124.348 26.3195 123.163 26.3195ZM135.607 18.3995L133.118 24.8795H133L130.392 18.3995H128.022L131.933 27.5195L129.681 32.5595H131.933L137.978 18.3995H135.607ZM115.696 27.9995H117.948V12.9995H115.696V27.9995Z" fill="white"/>
<path d="M1.32564 1C0.970081 1.36 0.851562 1.96 0.851562 2.68V29.2C0.851562 29.92 1.0886 30.52 1.44416 30.88L1.56267 31L16.259 16.12V16V15.88L1.32564 1Z" fill="url(#paint0_linear_615_17)"/>
<path d="M20.9999 21.1609L16.1406 16.2409V16.0009V15.8809L20.9999 10.9609L21.1184 11.0809L26.9258 14.4409C28.5851 15.4009 28.5851 16.9609 26.9258 17.9209L20.9999 21.1609Z" fill="url(#paint1_linear_615_17)"/>
<path d="M21.1207 21.04L16.1429 16L1.32812 31C1.92072 31.6 2.75035 31.6 3.81701 31.12L21.1207 21.04Z" fill="url(#paint2_linear_615_17)"/>
<path d="M21.1207 10.9599L3.81701 0.999939C2.75035 0.399939 1.92072 0.519939 1.32812 1.11994L16.1429 15.9999L21.1207 10.9599Z" fill="url(#paint3_linear_615_17)"/>
<path opacity="0.2" d="M20.9983 20.9219L3.81311 30.7619C2.86496 31.3619 2.03533 31.2419 1.44274 30.7619L1.32422 30.8819L1.44274 31.0019C2.03533 31.4819 2.86496 31.6019 3.81311 31.0019L20.9983 20.9219Z" fill="black"/>
<path opacity="0.12" d="M1.32564 30.7619C0.97008 30.4019 0.851562 29.8019 0.851562 29.0819V29.2019C0.851562 29.9219 1.0886 30.5219 1.44415 30.8819V30.7619H1.32564Z" fill="black"/>
<path opacity="0.12" d="M26.9259 17.56L21 20.92L21.1185 21.04L26.9259 17.68C27.7556 17.2 28.1111 16.6 28.1111 16C28.1111 16.6 27.637 17.08 26.9259 17.56Z" fill="black"/>
<path opacity="0.25" d="M3.81453 1.1215L26.9256 14.4415C27.6367 14.9215 28.1108 15.4015 28.1108 16.0015C28.1108 15.4015 27.7553 14.8015 26.9256 14.3215L3.81453 1.0015C2.15527 0.0414964 0.851562 0.761496 0.851562 2.6815V2.8015C0.851562 1.0015 2.15527 0.161496 3.81453 1.1215Z" fill="white"/>
<defs>
<linearGradient id="paint0_linear_615_17" x1="14.8363" y1="2.45176" x2="-5.30105" y2="22.3405" gradientUnits="userSpaceOnUse">
<stop stop-color="#00A0FF"/>
<stop offset="0.00657445" stop-color="#00A1FF"/>
<stop offset="0.2601" stop-color="#00BEFF"/>
<stop offset="0.5122" stop-color="#00D2FF"/>
<stop offset="0.7604" stop-color="#00DFFF"/>
<stop offset="1" stop-color="#00E3FF"/>
</linearGradient>
<linearGradient id="paint1_linear_615_17" x1="29.0998" y1="16.0029" x2="0.421992" y2="16.0029" gradientUnits="userSpaceOnUse">
<stop stop-color="#FFE000"/>
<stop offset="0.4087" stop-color="#FFBD00"/>
<stop offset="0.7754" stop-color="#FFA500"/>
<stop offset="1" stop-color="#FF9C00"/>
</linearGradient>
<linearGradient id="paint2_linear_615_17" x1="18.4266" y1="18.7554" x2="-8.88118" y2="45.7262" gradientUnits="userSpaceOnUse">
<stop stop-color="#FF3A44"/>
<stop offset="1" stop-color="#C31162"/>
</linearGradient>
<linearGradient id="paint3_linear_615_17" x1="-2.34927" y1="-7.7885" x2="9.84479" y2="4.25502" gradientUnits="userSpaceOnUse">
<stop stop-color="#32A071"/>
<stop offset="0.0685" stop-color="#2DA771"/>
<stop offset="0.4762" stop-color="#15CF74"/>
<stop offset="0.8009" stop-color="#06E775"/>
<stop offset="1" stop-color="#00F076"/>
</linearGradient>
</defs>
</svg>
